<?xml version="1.0" encoding="UTF-8"?>
<svg width="298px" height="35px" viewBox="0 0 298 35" version="1.1" xmlns="http://www.w3.org/2000/svg" xmlns:xlink="http://www.w3.org/1999/xlink">
    <!-- Generator: Sketch 54.1 (76490) - https://sketchapp.com -->
    <title>LOGO</title>
    <desc>Created with Sketch.</desc>
    <g id="Page-1" stroke="none" stroke-width="1" fill="none" fill-rule="evenodd">
        <g id="PC_GizTechPro" transform="translate(-381.000000, -38.000000)">
            <g id="Header" transform="translate(381.000000, 32.000000)">
                <g id="LOGO" transform="translate(0.000000, 6.000000)">
                    <path d="M26.7960929,31.6250915 L12.2268646,31.6250915 L3.95461927,17.4998245 L12.2268646,3.37525948 L26.7960929,3.37525948 L18.5229574,17.4998245 L26.7960929,31.6250915 Z M37.0457368,17.4998245 L29.7610336,29.9371985 L22.4773987,17.4998245 L37.0457368,17.4998245 Z M41,17.4998245 L30.7507121,35 L10.25,35 L0,17.4998245 L10.25,0 L30.7507121,0 L41,17.4998245 L41,17.4998245 Z" id="Fill-1" fill="#4FAFE0"></path>
                    <path d="M285.234415,27.1399869 C280.252964,27.1399869 276.57376,23.4785036 276.57376,18.4997968 C276.57376,13.5214964 280.252964,9.85920023 285.234415,9.85920023 C290.148046,9.85920023 293.830058,13.5214964 293.830058,18.4997968 C293.830058,23.4785036 290.148046,27.1399869 285.234415,27.1399869 Z M285.234415,30 C291.986845,30 297,25.1176159 297,18.4997968 C297,11.8827905 291.986845,7 285.234415,7 C278.414165,7 273.40101,11.9136789 273.40101,18.4997968 C273.40101,25.0859147 278.414165,30 285.234415,30 Z M257.704601,20.1702037 L252.315018,20.1702037 L252.315018,10.0506264 L257.704601,10.0506264 C261.766252,10.0506264 263.889579,11.8827905 263.889579,15.0947677 C263.889579,18.3067449 261.766252,20.1702037 257.704601,20.1702037 Z M267.443574,29.7431394 L262.175587,22.1933876 C265.286938,21.0704352 267.063935,18.5656376 267.063935,15.0947677 C267.063935,10.2115707 263.572143,7.25604778 257.800112,7.25604778 L249.141464,7.25604778 L249.141464,29.7431394 L252.315018,29.7431394 L252.315018,22.9013801 L257.800112,22.9013801 C258.276065,22.9013801 258.750814,22.8700853 259.196267,22.8355392 L263.985893,29.7431394 L267.443574,29.7431394 Z M232.11311,20.1380962 L226.72152,20.1380962 L226.72152,10.0506264 L232.11311,10.0506264 C236.172754,10.0506264 238.299693,11.8827905 238.299693,15.0947677 C238.299693,18.3067449 236.172754,20.1380962 232.11311,20.1380962 Z M232.210628,7.25604778 L223.550374,7.25604778 L223.550374,29.7431394 L226.72152,29.7431394 L226.72152,22.9330812 L232.210628,22.9330812 C237.98306,22.9330812 241.470438,19.9783711 241.470438,15.0947677 C241.470438,10.2115707 237.98306,7.25604778 232.210628,7.25604778 Z M211.858229,7.25604778 L211.858229,17.5999717 L197.0138,17.5999717 L197.0138,7.25604778 L195.395721,7.25604778 L195.395721,29.7431394 L197.0138,29.7431394 L197.0138,19.0468449 L211.858229,19.0468449 L211.858229,29.7431394 L213.477512,29.7431394 L213.477512,7.25604778 L211.858229,7.25604778 Z M179.200084,29.9028644 C182.339125,29.9028644 185.163941,28.8433143 187.099054,26.7555088 L186.081735,25.6963651 C184.178727,27.5903059 181.864376,28.3946211 179.262688,28.3946211 C173.586169,28.3946211 169.302995,24.1535757 169.302995,18.4997968 C169.302995,12.8456115 173.586169,8.60578537 179.262688,8.60578537 C181.864376,8.60578537 184.178727,9.37677369 186.081735,11.2715273 L187.099054,10.2115707 C185.163941,8.12457811 182.339125,7.09591631 179.200084,7.09591631 C172.602159,7.09591631 167.685719,11.94538 167.685719,18.4997968 C167.685719,25.05462 172.602159,29.9028644 179.200084,29.9028644 Z M147.461338,28.2665972 L147.461338,19.0468449 L159.292737,19.0468449 L159.292737,17.5999717 L147.461338,17.5999717 L147.461338,8.73543496 L160.68809,8.73543496 L160.68809,7.25604778 L145.844463,7.25604778 L145.844463,29.7431394 L161.165246,29.7431394 L161.165246,28.2665972 L147.461338,28.2665972 Z M129.362692,29.7431394 L130.980771,29.7431394 L130.980771,8.73543496 L138.973647,8.73543496 L138.973647,7.25604778 L121.37102,7.25604778 L121.37102,8.73543496 L129.362692,8.73543496 L129.362692,29.7431394 Z M101.620585,28.2665972 L116.910066,8.41395275 L116.910066,7.25604778 L99.5594607,7.25604778 L99.5594607,8.73543496 L114.690023,8.73543496 L99.3692401,28.5872665 L99.3692401,29.7431394 L117.259205,29.7431394 L117.259205,28.2665972 L101.620585,28.2665972 Z M89.517098,29.7431394 L91.1351769,29.7431394 L91.1351769,7.25604778 L89.517098,7.25604778 L89.517098,29.7431394 Z M77.9850754,26.3381103 C76.1767759,27.8162782 74.0205413,28.3946211 71.6732835,28.3946211 C65.9004499,28.3946211 61.6180789,24.1222809 61.6180789,18.4997968 C61.6180789,12.8456115 65.9004499,8.60578537 71.6732835,8.60578537 C74.3700816,8.60578537 76.6848334,9.34304041 78.619144,11.2715273 L79.6348577,10.180276 C77.6684424,8.12457811 74.8456331,7.09591631 71.6407774,7.09591631 C64.915637,7.09591631 60,11.94538 60,18.4997968 C60,25.05462 64.915637,29.9028644 71.6094753,29.9028644 C74.6550112,29.9028644 77.5404247,28.9400435 79.5389448,27.0144016 L79.5389448,18.5973388 L77.9850754,18.5973388 L77.9850754,26.3381103 L77.9850754,26.3381103 Z" id="Fill-3" stroke="#979797" fill="#FFFFFF"></path>
                </g>
            </g>
        </g>
    </g>
</svg>